<svg xmlns="http://www.w3.org/2000/svg" viewBox="0 0 946 492"><defs><radialGradient id="space"><stop stop-color="#073b69"/><stop offset=".55" stop-color="#031d35"/><stop offset="1" stop-color="#020c16"/></radialGradient><radialGradient id="earth"><stop stop-color="#1167a5"/><stop offset=".55" stop-color="#06345a"/><stop offset="1" stop-color="#01101e"/></radialGradient><filter id="glow"><feGaussianBlur stdDeviation="4" result="b"/><feMerge><feMergeNode in="b"/><feMergeNode in="SourceGraphic"/></feMerge></filter></defs><rect width="946" height="492" fill="url(#space)"/><g fill="#29a9ff" opacity=".35"> <circle cx="120" cy="50" r="1"/><circle cx="260" cy="90" r="1"/><circle cx="560" cy="55" r="1"/><circle cx="830" cy="70" r="1"/><circle cx="700" cy="150" r="1"/></g><g fill="none" stroke="#0b9cff" stroke-width="2" opacity=".8" filter="url(#glow)"><path d="M120 170 C130 90 220 80 260 145 C300 90 390 100 405 180"/><path d="M600 175 C620 95 710 85 748 145 C800 105 870 130 880 190"/></g><text x="170" y="145" fill="white" font-family="Arial" font-size="56" font-weight="700">aws</text><path d="M175 158 Q225 195 285 160" fill="none" stroke="#ff9900" stroke-width="7"/><text x="700" y="150" fill="#119cff" font-family="Arial" font-size="46">Azure</text><path d="M640 153 l35 -60 23 60 -22 -10 -16 10z" fill="#119cff"/><circle cx="475" cy="470" r="270" fill="url(#earth)" stroke="#159fff" stroke-width="2"/><path d="M245 330 C340 260 420 245 525 270 S700 340 760 420" fill="none" stroke="#19aaff" stroke-width="2" opacity=".8"/><path d="M300 430 C360 310 450 255 600 235" fill="none" stroke="#19aaff" stroke-width="1.5" opacity=".75"/><path d="M410 260 C470 300 520 360 550 475" fill="none" stroke="#19aaff" stroke-width="1.5" opacity=".75"/><g fill="#66c9ff" filter="url(#glow)"><circle cx="310" cy="330" r="4"/><circle cx="405" cy="285" r="4"/><circle cx="510" cy="292" r="4"/><circle cx="610" cy="330" r="4"/><circle cx="690" cy="390" r="4"/><circle cx="455" cy="390" r="4"/></g><g fill="#b5d6f4" font-family="Arial" font-size="22" letter-spacing="1"><text x="790" y="255">SECURE</text><text x="790" y="297">SCALABLE</text><text x="790" y="339">INNOVATIVE</text><text x="790" y="381">AI-DRIVEN</text><text x="790" y="423">MISSION READY</text></g><path d="M790 448h60" stroke="#159fff" stroke-width="3"/></svg>